HIERARCHY
ROOT Hips
{
	OFFSET	0.00	0.00	0.00
	CHANNELS 6 Xposition Yposition Zposition Zrotation Xrotation Yrotation
	JOINT LeftUpLeg
	{
		OFFSET	 0.126116	-0.014019	-0.065224
		CHANNELS 3 Zrotation Xrotation Yrotation
		JOINT LeftLeg
		{
			OFFSET	 0.000000	 0.000000	 0.569914
			CHANNELS 3 Zrotation Xrotation Yrotation
			JOINT LeftFoot
			{
				OFFSET	 0.000000	 0.000000	 0.544423
				CHANNELS 3 Zrotation Xrotation Yrotation
				JOINT LeftToeBase
				{
					OFFSET	 0.000000	 0.000000	 0.207117
					CHANNELS 3 Zrotation Xrotation Yrotation
					End Site
					{
						OFFSET	 0.000000	 0.000000	 0.207117
					}
				}
			}
		}
	}
	JOINT RightUpLeg
	{
		OFFSET	-0.124023	-0.008373	-0.065224
		CHANNELS 3 Zrotation Xrotation Yrotation
		JOINT RightLeg
		{
			OFFSET	 0.000000	 0.000000	 0.570047
			CHANNELS 3 Zrotation Xrotation Yrotation
			JOINT RightFoot
			{
				OFFSET	 0.000000	 0.000000	 0.544354
				CHANNELS 3 Zrotation Xrotation Yrotation
				JOINT RightToeBase
				{
					OFFSET	 0.000000	 0.000000	 0.207540
					CHANNELS 3 Zrotation Xrotation Yrotation
					End Site
					{
						OFFSET	 0.000000	 0.000000	 0.207540
					}
				}
			}
		}
	}
	JOINT Spine
	{
		OFFSET	 0.000184	-0.007763	 0.117403
		CHANNELS 3 Zrotation Xrotation Yrotation
		JOINT Spine1
		{
			OFFSET	 0.000000	 0.000000	 0.137269
			CHANNELS 3 Zrotation Xrotation Yrotation
			JOINT Spine2
			{
				OFFSET	 0.000000	 0.000000	 0.156879
				CHANNELS 3 Zrotation Xrotation Yrotation
				JOINT LeftShoulder
				{
					OFFSET	 0.080501	-0.002496	 0.160144
					CHANNELS 3 Zrotation Xrotation Yrotation
					JOINT LeftArm
					{
						OFFSET	 0.000000	 0.000000	 0.164363
						CHANNELS 3 Zrotation Xrotation Yrotation
						JOINT LeftForeArm
						{
							OFFSET	 0.000000	 0.000000	 0.364576
							CHANNELS 3 Zrotation Xrotation Yrotation
							JOINT LeftHand
							{
								OFFSET	 0.000000	 0.000000	 0.360812
								CHANNELS 3 Zrotation Xrotation Yrotation
								JOINT LeftHandIndex1
								{
									OFFSET	 0.000000	 0.000000	 0.086006
									CHANNELS 3 Zrotation Xrotation Yrotation
									JOINT LeftHandIndex2
									{
										OFFSET	 0.000000	 0.000000	 0.047236
										CHANNELS 3 Zrotation Xrotation Yrotation
										JOINT LeftHandIndex3
										{
											OFFSET	-0.004284	-0.000551	 0.038166
											CHANNELS 3 Zrotation Xrotation Yrotation
											End Site
											{
												OFFSET	-0.004284	-0.000551	 0.038166
											}
										}
									}
								}
							}
						}
					}
				}
				JOINT Neck
				{
					OFFSET	 0.000000	 0.000000	 0.176489
					CHANNELS 3 Zrotation Xrotation Yrotation
					JOINT Head
					{
						OFFSET	 0.000000	-0.001747	 0.077940
						CHANNELS 3 Zrotation Xrotation Yrotation
						End Site
						{
							OFFSET	 0.000000	-0.001747	 0.077940
						}
					}
				}
				JOINT RightShoulder
				{
					OFFSET	-0.080363	 0.000306	 0.159706
					CHANNELS 3 Zrotation Xrotation Yrotation
					JOINT RightArm
					{
						OFFSET	 0.000000	 0.000000	 0.164196
						CHANNELS 3 Zrotation Xrotation Yrotation
						JOINT RightForeArm
						{
							OFFSET	 0.000000	 0.000000	 0.365611
							CHANNELS 3 Zrotation Xrotation Yrotation
							JOINT RightHand
							{
								OFFSET	 0.000000	 0.000000	 0.360648
								CHANNELS 3 Zrotation Xrotation Yrotation
								JOINT RightHandIndex1
								{
									OFFSET	 0.000000	 0.000000	 0.069977
									CHANNELS 3 Zrotation Xrotation Yrotation
									JOINT RightHandIndex2
									{
										OFFSET	 0.000000	 0.000000	 0.052305
										CHANNELS 3 Zrotation Xrotation Yrotation
										JOINT RightHandIndex3
										{
											OFFSET	 0.009002	-0.000782	 0.042196
											CHANNELS 3 Zrotation Xrotation Yrotation
											End Site
											{
												OFFSET	 0.009002	-0.000782	 0.042196
											}
										}
									}
								}
							}
						}
					}
				}
			}
		}
	}
}
MOTION
Frames:    11
Frame Time: 0.03333334
 0.000296	 0.019640	 1.272323	-0.002992	 0.003675	 0.173858	-17.935990	-2.080324	-179.308600	 1.460755	-12.919640	-0.756129	-2.403426	 71.809860	-4.185251	-2.385833	 28.452760	 0.000004	 17.783280	-2.196887	 179.111300	-1.453112	-12.498430	 0.717229	 2.356095	 71.406670	 4.036206	 2.384658	 28.388730	 0.000004	-4.280491	 2.674491	 0.294795	-2.159337	 3.832509	-0.799002	 6.536645	-4.712182	 1.421141	-91.776130	 78.527470	 180.000000	 68.776190	 44.107850	-52.817120	-7.531612	 5.342623	-13.492800	-30.817600	-18.082610	-4.582572	-2.635965	 4.993658	 6.788941	-5.165319	 0.784187	 3.516649	-5.225038	 0.466231	 0.424329	-0.000002	-3.783157	-0.089647	 6.354896	 4.530557	-0.251652	 89.782140	 78.203890	 180.000000	-64.938700	 42.240630	 56.192260	 7.333098	 5.218615	 12.092330	 31.629830	-18.858070	 9.359412	 6.112037	 4.509576	-0.364401	 4.968462	 1.518543	-9.347576	 5.168945	 0.703820	 2.021906
 0.000299	 0.019580	 1.273280	-0.002752	 0.004107	 0.174402	-17.932780	-2.077333	-179.309800	 1.460849	-12.912860	-0.755716	-2.434879	 71.646520	-4.152270	-2.385833	 28.452760	 0.000004	 17.780010	-2.193117	 179.111500	-1.453226	-12.489460	 0.716698	 2.385834	 71.242200	 4.005358	 2.384658	 28.388730	 0.000004	-4.258847	 2.625996	 0.287018	-2.151025	 4.000425	-0.783550	 6.510505	-4.929993	 1.429826	-91.776140	 78.527470	 180.000000	 68.820360	 44.150130	-52.752040	-7.522817	 5.351517	-13.515820	-30.917910	-19.013270	-4.614994	-2.635965	 4.993658	 6.788941	-5.165319	 0.784187	 3.516649	-5.225038	 0.466231	 0.424329	-0.000002	-3.783157	-0.089647	 6.320628	 4.432347	-0.244861	 89.782070	 78.203850	-180.000000	-64.880700	 41.987350	 56.465580	 6.953323	 5.106955	 12.056780	 31.753970	-20.025160	 9.280079	 6.112037	 4.509576	-0.364401	 4.968462	 1.518543	-9.347576	 5.168945	 0.703820	 2.021906
 0.000302	 0.019500	 1.274571	-0.002410	 0.004700	 0.174405	-17.928380	-2.072521	-179.310900	 1.461002	-12.901630	-0.755035	-2.475509	 71.427980	-4.109478	-2.385833	 28.452760	 0.000004	 17.775630	-2.188318	 179.112400	-1.453363	-12.478390	 0.716042	 2.424498	 71.023770	 3.965212	 2.384658	 28.388730	 0.000004	-4.213768	 2.561876	 0.276077	-2.131780	 4.222445	-0.760072	 6.450704	-5.219749	 1.435508	-91.776150	 78.527470	 180.000000	 68.864230	 44.212480	-52.651200	-7.508569	 5.361096	-13.540530	-31.082370	-20.515350	-4.672049	-2.635965	 4.993658	 6.788941	-5.165319	 0.784187	 3.516649	-5.225038	 0.466231	 0.424329	-0.000002	-3.783157	-0.089647	 6.250803	 4.305338	-0.235207	 89.782100	 78.203890	 180.000000	-64.802020	 41.430580	 57.202000	 6.334650	 4.797852	 11.692960	 32.098920	-22.005510	 9.115908	 6.112037	 4.509576	-0.364401	 4.968462	 1.518543	-9.347576	 5.168945	 0.703820	 2.021906
 0.000303	 0.019414	 1.276011	-0.002022	 0.005350	 0.173245	-17.923320	-2.066357	-179.311200	 1.461198	-12.886800	-0.754138	-2.518367	 71.187110	-4.064020	-2.385833	 28.452760	 0.000004	 17.770820	-2.183707	 179.114300	-1.453491	-12.468250	 0.715439	 2.465855	 70.785270	 3.922233	 2.384658	 28.388730	 0.000004	-4.143138	 2.492338	 0.263679	-2.099904	 4.463177	-0.730823	 6.352383	-5.536166	 1.433688	-91.776250	 78.527470	-180.000000	 68.888040	 44.286030	-52.514140	-7.489472	 5.369598	-13.562550	-31.304830	-22.496340	-4.756882	-2.635965	 4.993658	 6.788941	-5.165319	 0.784187	 3.516649	-5.225038	 0.466231	 0.424329	-0.000002	-3.783157	-0.089647	 6.142664	 4.171266	-0.223926	 89.782100	 78.203900	 180.000000	-64.453140	 40.702900	 58.313710	 5.439911	 4.319612	 11.039100	 32.554990	-24.584030	 8.936723	 6.112037	 4.509576	-0.364401	 4.968462	 1.518543	-9.347576	 5.168945	 0.703820	 2.021906
 0.000303	 0.019340	 1.277314	-0.001661	 0.005921	 0.171308	-17.918580	-2.059890	-179.310800	 1.461419	-12.871050	-0.753185	-2.555197	 70.970780	-4.024658	-2.385833	 28.452760	 0.000004	 17.766420	-2.179907	 179.116800	-1.453595	-12.460410	 0.714978	 2.501715	 70.572910	 3.884845	 2.384658	 28.388730	 0.000004	-4.061493	 2.431201	 0.252260	-2.061917	 4.674842	-0.701931	 6.235663	-5.816314	 1.424661	-91.776150	 78.527430	 180.000000	 68.882030	 44.353170	-52.359460	-7.469667	 5.376047	-13.579270	-31.542210	-24.540660	-4.856600	-2.635965	 4.993658	 6.788941	-5.165319	 0.784187	 3.516649	-5.225038	 0.466231	 0.424329	-0.000002	-3.783157	-0.089647	 6.018514	 4.056509	-0.213352	 89.782140	 78.203920	 180.000000	-63.707700	 39.861410	 59.206050	 4.339296	 4.012326	 10.876250	 32.685230	-27.248020	 8.651630	 6.112037	 4.509576	-0.364401	 4.968462	 1.518543	-9.347576	 5.168945	 0.703820	 2.021906
 0.000299	 0.019260	 1.278794	-0.001240	 0.006555	 0.167940	-17.912970	-2.051751	-179.309500	 1.461688	-12.850850	-0.751961	-2.595410	 70.724370	-3.981345	-2.385833	 28.452760	 0.000004	 17.761410	-2.176316	 179.120500	-1.453678	-12.453710	 0.714581	 2.541446	 70.333270	 3.843366	 2.384658	 28.388730	 0.000004	-3.947974	 2.363295	 0.239211	-2.007979	 4.910011	-0.666146	 6.070424	-6.129802	 1.405540	-91.776240	 78.527430	-180.000000	 68.834610	 44.425510	-52.130700	-7.443739	 5.384653	-13.601580	-31.856270	-27.127260	-5.002131	-2.635965	 4.993658	 6.788941	-5.165319	 0.784187	 3.516649	-5.225038	 0.466231	 0.424329	-0.000002	-3.783157	-0.089647	 5.846635	 3.932412	-0.200903	 89.782100	 78.203870	 180.000000	-61.963870	 38.525670	 59.224740	 2.561182	 4.263151	 12.717140	 32.372100	-30.664990	 8.075054	 6.112037	 4.509576	-0.364401	 4.968462	 1.518543	-9.347576	 5.168945	 0.703820	 2.021906
 0.000294	 0.019197	 1.280130	-0.000862	 0.007086	 0.163845	-17.895470	-2.043559	-179.308300	 1.461959	-12.830400	-0.750726	-2.613457	 70.504370	-3.948313	-2.385833	 28.452760	 0.000004	 17.768320	-2.173903	 179.123900	-1.453727	-12.449920	 0.714354	 2.590778	 70.121380	 3.803592	 2.384658	 28.388730	 0.000004	-3.828733	 2.304501	 0.227732	-1.950408	 5.113696	-0.632084	 5.894561	-6.403174	 1.380436	-91.776200	 78.527450	 180.000000	 68.758420	 44.486950	-51.868630	-7.524652	 5.393167	-13.623620	-32.059270	-29.584520	-5.143675	-2.635965	 4.993658	 6.788941	-5.165319	 0.784187	 3.516649	-5.225038	 0.466231	 0.424329	-0.000002	-3.783157	-0.089647	 5.666681	 3.827836	-0.189529	 89.782080	 78.203900	-180.000000	-59.609100	 37.079890	 59.814340	 0.662672	 4.190177	 14.000130	 31.615100	-33.969670	 7.290689	 6.112037	 4.509576	-0.364401	 4.968462	 1.518543	-9.347576	 5.168945	 0.703820	 2.021906
 0.000285	 0.019133	 1.281648	-0.000450	 0.007640	 0.157998	-17.890160	-2.033430	-179.304900	 1.462304	-12.804800	-0.749176	-2.652199	 70.253100	-3.906868	-2.385833	 28.452760	 0.000004	 17.762330	-2.171821	 179.129600	-1.453753	-12.447970	 0.714238	 2.627846	 69.881990	 3.763815	 2.384658	 28.388730	 0.000004	-3.672651	 2.239796	 0.214918	-1.874050	 5.338003	-0.590962	 5.661891	-6.706244	 1.342320	-91.776120	 78.527450	 179.999900	 68.597210	 44.535140	-51.482060	-7.522224	 5.402978	-13.649130	-32.423660	-32.462510	-5.358203	-2.635965	 4.993658	 6.788941	-5.165319	 0.784187	 3.516649	-5.225038	 0.466231	 0.424329	-0.000002	-3.783157	-0.089647	 5.431693	 3.715759	-0.176335	 89.782100	 78.203900	 180.000000	-56.255170	 35.408280	 62.290550	-1.579602	 3.320083	 12.991780	 30.360140	-37.703270	 6.225261	 6.112037	 4.509576	-0.364401	 4.968462	 1.518543	-9.347576	 5.168945	 0.703820	 2.021906
 0.000275	 0.019075	 1.282890	-0.000101	 0.008075	 0.151798	-17.885240	-2.024112	-179.301000	 1.462626	-12.780890	-0.747730	-2.685239	 70.030740	-3.871245	-2.385833	 28.452760	 0.000004	 17.756960	-2.171026	 179.135500	-1.453742	-12.449090	 0.714305	 2.659824	 69.672240	 3.729356	 2.384658	 28.388730	 0.000004	-3.517124	 2.184871	 0.203918	-1.797094	 5.528642	-0.552884	 5.427978	-6.965521	 1.300071	-91.776290	 78.527470	-179.999900	 68.402210	 44.562650	-51.067650	-7.519541	 5.414138	-13.677970	-32.762520	-34.923270	-5.574398	-2.635965	 4.993658	 6.788941	-5.165319	 0.784187	 3.516649	-5.225038	 0.466231	 0.424329	-0.000002	-3.783157	-0.089647	 5.198126	 3.623117	-0.164533	 89.782170	 78.203900	 179.999900	-52.653650	 33.532180	 64.171440	-3.710870	 2.806925	 13.017250	 28.641070	-40.739690	 5.044399	 6.112037	 4.509576	-0.364401	 4.968462	 1.518543	-9.347576	 5.168945	 0.703820	 2.021906
 0.000264	 0.019018	 1.283972	 0.000220	 0.008447	 0.144591	-17.880240	-2.014148	-179.296300	 1.462963	-12.755230	-0.746177	-2.717034	 69.808880	-3.836817	-2.385833	 28.452760	 0.000004	 17.751510	-2.171184	 179.142100	-1.453693	-12.452920	 0.714533	 2.690894	 69.465230	 3.695658	 2.384658	 28.388730	 0.000004	-3.346488	 2.132580	 0.193473	-1.711856	 5.710361	-0.513618	 5.169508	-7.214150	 1.249999	-91.776240	 78.527490	-180.000000	 68.146770	 44.568430	-50.571290	-7.516779	 5.424924	-13.705940	-33.094310	-37.120340	-5.800210	-2.635965	 4.993658	 6.788941	-5.165319	 0.784187	 3.516649	-5.225038	 0.466231	 0.424329	-0.000002	-3.783157	-0.089647	 4.942272	 3.536973	-0.152704	 89.782160	 78.203850	 179.999900	-48.091590	 31.306930	 65.594830	-5.975940	 2.490240	 14.269370	 26.477830	-43.364740	 3.674290	 6.112037	 4.509576	-0.364401	 4.968462	 1.518543	-9.347576	 5.168945	 0.703820	 2.021906
 0.000248	 0.018941	 1.285029	 0.000555	 0.008784	 0.135343	-17.874450	-2.002362	-179.290100	 1.463377	-12.724640	-0.744327	-2.751461	 69.559670	-3.799323	-2.385833	 28.452760	 0.000004	 17.745360	-2.172454	 179.150500	-1.453597	-12.460300	 0.714968	 2.724939	 69.235130	 3.658579	 2.384658	 28.388730	 0.000004	-3.137147	 2.077071	 0.182432	-1.606332	 5.903599	-0.468237	 4.850242	-7.480040	 1.184357	-91.776170	 78.527450	 180.000000	 67.791110	 44.547540	-49.919470	-7.513992	 5.437331	-13.737980	-33.419310	-39.033020	-6.035110	-2.635965	 4.993658	 6.788941	-5.165319	 0.784187	 3.516649	-5.225038	 0.466231	 0.424329	-0.000002	-3.783157	-0.089647	 4.628922	 3.447775	-0.139404	 89.782100	 78.203870	 180.000000	-42.645340	 28.785300	 68.950220	-8.518708	 1.664950	 13.036890	 23.577730	-45.553060	 1.920478	 6.112037	 4.509576	-0.364401	 4.968462	 1.518543	-9.347576	 5.168945	 0.703820	 2.021906
